<?xml version="1.0" encoding="utf-8"?>
<!-- Generator: Adobe Illustrator 26.3.1, SVG Export Plug-In . SVG Version: 6.00 Build 0)  -->
<svg version="1.1" id="Layer_1" xmlns="http://www.w3.org/2000/svg" xmlns:xlink="http://www.w3.org/1999/xlink" x="0px" y="0px"
	 viewBox="0 0 384 384" style="enable-background:new 0 0 384 384;" xml:space="preserve">
<style type="text/css">
	.st0{fill:#282A36;}
</style>
<path class="st0" d="M176.2,384c-1.3-1.3-2.9-2.4-3.8-3.9c-3.1-5.1,0.7-11,7-11.1c12.5-0.1,25,0,37.5,0c1.3,0,2.7,0,4.3,0
	c-0.7-14.2-3.2-27.6-8.7-40.4c-2.3-5.4-5.5-10.3-8.2-15.5c-1.1-2.1-2.7-2.7-5.2-2.7c-41,0.5-74.2-26-82.5-66
	c-3.2-15.6-1.6-30.8,4.2-45.6c2.3-5.9,6.2-8.2,10.7-6.3c4.4,1.9,5.5,5.9,3.3,11.8c-8.7,23.4-5.8,45.3,9.2,65.2
	c18.9,25.2,53.2,33.1,81.8,19.3c4.3-2.1,8-2.2,12.4-0.3c21.5,9.1,43,18.1,64.6,26.8c22.7,9.1,46.9-3.8,51.5-27.6
	c2.8-14.3-1.7-26.5-12.8-35.9c-25.5-21.6-51.1-43.3-77-64.6c-22.5-18.5-45.4-36.4-68.1-54.7c-1.9-1.6-3.6-3.9-4.5-6.2
	c-7.1-17.2-14-34.4-21-51.7c-0.6-1.4-1.1-2.7-1.7-4.1c-17.8,7.1-27.8,23.1-26.2,42.1c0.3,3.8-0.6,6.9-4.2,8.9
	c-18.9,10.3-32.7,25.7-43.8,43.7c-14.7,23.8-22.4,50-26,77.5c-5.6,42.1-2,83.8,5.9,125.2c0,0.2,0.2,0.4,0.5,1c9.3,0,18.8,0,28.2,0
	c2.1,0,4.2,0,6.4,0c4.2,0.1,6.9,2,7.9,5.5c0.9,3.2-0.4,6.3-3.8,8.6c-0.4,0.3-0.8,0.6-1.2,0.9c-15.5,0-31,0-46.5,0
	c-3.4-1.9-5-4.8-5.6-8.7c-0.7-5-1.9-10-2.9-15.3c-17.2,1-30.9-5.2-39-20.6c-8-15.2-5.6-29.9,4.2-42.7c-3-6.4-6.7-12-8.2-18.2
	c-3.7-14.6,0.4-27.4,11.3-37.8c1.2-1.2,2.4-1.9,1.5-4.3c-7.9-20.1-1.8-38.1,16.6-49.8c0.3-0.2,0.6-0.5,1-0.9
	c-2.3-7.3-3-14.8-0.9-22.4c3.9-14,12.8-23.1,26.6-27.6c1.6-0.5,2.8-0.8,3-3c2.8-26.8,26.9-42,52.4-33.3c0.3,0.1,0.7,0.2,1.5,0.3
	c0.3-1.4,0.6-2.9,1-4.3c5.9-22.4,21.4-35,42.4-42c4-1.3,7.4,0.9,9.2,5.5c6,14.7,11.9,29.4,17.8,44.1c1.4,3.4,3.1,6.6,3.9,10.1
	c1.9,7.8,8,11.6,14,16c9.6-8.1,19.2-16.1,28.8-24.2C282.2,74.1,319.1,43,356,12c1.3-1.1,2.8-2.3,4.4-2.8c2.9-0.9,5.7-0.3,7.8,2.2
	c2.2,2.6,2.4,5.5,0.9,8.4c-1.7,3.3-3.7,6.5-5.6,9.7c-28.6,48.2-57.2,96.4-85.8,144.6c-0.5,0.9-1,1.7-1.7,2.9
	c4.8,3.9,9.8,7.7,14.5,11.7c20.8,17.6,41.7,35,62.2,53c19.2,16.9,22.9,45.2,9.4,66.9c-13.4,21.5-40.3,30.4-63.9,21
	c-20.6-8.2-41.1-16.9-61.5-25.5c-2.8-1.2-5.2-1.5-8.1,0c-2.9,1.5-6.2,2.4-8.5,3.3c3.9,10.3,8.4,20.4,11.6,30.7
	c3.7,11.7,4.6,24,4.9,36.3c0.1,4.5-1.4,7.7-5.5,9.6C212.8,384,194.5,384,176.2,384z M276.7,98.4c-6,5-11.5,9.6-16.9,14.4
	c-0.6,0.6-0.5,2.3-0.3,3.4c1.6,7.3,3.3,14.6,5,21.9c1.5,6.6,3,13.3,4.8,20.8c4.5-7.6,8.5-14.6,12.8-21.3c2.1-3.2,2.5-6.1,1.5-9.8
	C281.1,118.2,279.1,108.6,276.7,98.4z M55.6,344.7c-1.1-11.7-2.1-23.1-3.3-34.5c-0.1-0.9-1.5-2.1-2.5-2.3c-3.7-1-7.5-1.8-11.3-2.5
	c-1-0.2-2.5,0.2-3.1,0.8c-6.1,6.1-7.5,17.8-3.1,26.2C36.9,341.1,46.3,346.1,55.6,344.7z M51.2,292.6c0.4-11.2,0.8-22.3,1.1-33.3
	c0-0.6-0.7-1.6-1.2-1.9c-4.3-2.2-8.6-4.3-13-6.5c-7.9,5.8-11.1,16.1-8,25.8C33,285.9,41.6,292.5,51.2,292.6z M332.3,52.6
	c-0.2-0.2-0.4-0.3-0.6-0.5c-13.4,11.3-26.9,22.6-40.3,34c-0.7,0.6-1.5,1.9-1.4,2.7c1.7,8.2,3.6,16.4,5.7,25.5
	C308.3,93.1,320.3,72.8,332.3,52.6z M53.7,242.2c1.9-9.8,3.2-19.2,5.8-28.2c1.8-6.1,1.4-10.4-4.3-13.4c-1.1-0.6-2.9-0.9-3.7-0.4
	c-8.3,5-12.4,12.4-11.7,22.1C40.4,231.6,45.3,238,53.7,242.2z M76.3,149.9c-9.1,2.9-15.2,8.7-17.2,18.3c-1.8,8.6,0.8,15.9,7,22
	c3.7-7.9,6.6-16,11-23.1c3.7-6,4.4-11,0-16.6C77,150.4,76.9,150.3,76.3,149.9z M91,143.9c4.8-5.2,9.3-10.7,14.4-15.6
	c5.1-5,10.7-9.5,16.1-14.3c-8.2-4.7-19.4-0.9-24.8,4.2C89.6,125,87.1,135.7,91,143.9z M228.4,139c8.5,6.8,16.5,13.2,24.6,19.7
	c0.2-0.1,0.5-0.3,0.7-0.4c-2.6-11.2-5.1-22.3-7.8-34C239.9,129.3,234.4,134,228.4,139z"/>
<path class="st0" d="M231,0c1.8,1.8,4.4,3.3,5.3,5.5c4.9,12.2,13.2,20.8,25.5,25.4c0.6,0.2,1.1,0.6,1.6,0.9c5.3,3.3,5.3,9.9,0,13.2
	c-3.3,2-6.6,4-10.2,5.5c-5.6,2.5-9.6,6.2-12,12c-1.4,3.4-3.4,6.6-5.4,9.9c-3.6,6-10.9,6.3-13.6-0.1c-5.4-12.8-14.1-21.7-27-27.1
	c-6.5-2.7-6.2-10.2,0-13.7c2.2-1.2,4.3-2.7,6.6-3.6c8.1-3.1,13.3-8.9,16.9-16.8c1.8-4,5.2-7.4,7.8-11.1C228,0,229.5,0,231,0z
	 M243.9,38.5c-7.1-3-12.2-7.6-14.8-15.1c-2.8,7.3-7.9,12-15.2,14.8c3.7,2.3,7.1,3.7,9.5,6.1c2.4,2.4,3.8,5.8,6,9.5
	C231.8,45.9,236.7,41.3,243.9,38.5z"/>
<path class="st0" d="M142.5,384c-1.5-1.9-3.6-3.6-4.3-5.7c-1.2-3.5,1-7.1,4.3-8.5c3.4-1.4,7.2-0.1,9.1,3c2,3.3,1.3,7.2-1.8,9.7
	c-0.7,0.5-1.4,1-2.1,1.5C146,384,144.2,384,142.5,384z"/>
<path class="st0" d="M340.2,146c-8.7-1.3-11.2-3.1-11.1-7.9c0-4.7,2.5-6.5,11-7.9c1.2-8.2,3.2-11,7.9-10.9c4.8,0.1,7,3.2,7.6,10
	c3.5,1.6,6.8,2.8,9.6,4.7c1.1,0.7,1.5,3.1,1.5,4.8c-0.1,4.6-2.8,6.3-9.9,7.1c-1.6,3.5-2.7,6.9-4.6,9.7c-0.7,1.1-3.1,1.4-4.8,1.4
	C342.8,156.9,340.9,153.9,340.2,146z"/>
<path class="st0" d="M218.3,190.3c-0.3,4.4-1.9,6.9-5.2,8.1c-3.7,1.2-6.6-0.1-8.8-3.1c-5.7-8-13.7-10.5-22.9-9.6
	c-3.1,0.3-6.1,1.2-9.1,1.9c-4.3,0.9-7.9-1.2-9.1-5.2c-1.1-3.6,0.6-7.5,4.3-8.9c15.1-5.7,36.7-4.1,48.3,12.1
	C217,187.1,217.7,189.1,218.3,190.3z"/>
<path class="st0" d="M334.6,272.6c0,4.1-3.2,7.4-7.3,7.4c-4.1,0-7.5-3.2-7.5-7.2c-0.1-4.2,3.4-7.6,7.6-7.6
	C331.5,265.2,334.6,268.5,334.6,272.6z"/>
</svg>
